<svg width="50" height="50" viewBox="0 0 50 50" fill="none" xmlns="http://www.w3.org/2000/svg">
<g id="Actualizaci&#195;&#179;n">
<path id="Vector" d="M17.9687 17.7083H8.59371C8.32008 17.7085 8.0491 17.6547 7.79627 17.5501C7.54344 17.4454 7.31371 17.292 7.12022 17.0985C6.92674 16.905 6.77328 16.6753 6.66864 16.4224C6.564 16.1696 6.51022 15.8986 6.51038 15.625V6.24999C6.51038 5.69746 6.72987 5.16755 7.12057 4.77685C7.51127 4.38615 8.04118 4.16666 8.59371 4.16666C9.14624 4.16666 9.67615 4.38615 10.0668 4.77685C10.4575 5.16755 10.677 5.69746 10.677 6.24999V13.5417H17.9687C18.5212 13.5417 19.0511 13.7612 19.4418 14.1519C19.8326 14.5426 20.052 15.0725 20.052 15.625C20.052 16.1775 19.8326 16.7074 19.4418 17.0981C19.0511 17.4888 18.5212 17.7083 17.9687 17.7083Z" fill="#E94DD5"/>
<path id="Vector_2" d="M43.75 27.0833C43.4764 27.0835 43.2054 27.0297 42.9525 26.9251C42.6997 26.8204 42.47 26.667 42.2765 26.4735C42.083 26.28 41.9296 26.0503 41.8249 25.7974C41.7203 25.5446 41.6665 25.2736 41.6667 25C41.669 21.3318 40.4603 17.7654 38.2282 14.8544C35.9961 11.9434 32.8655 9.85072 29.3223 8.9011C25.7792 7.95148 22.0216 8.19807 18.6329 9.6026C15.2442 11.0071 12.414 13.491 10.5815 16.6687C10.4444 16.9055 10.262 17.1129 10.0448 17.2791C9.82759 17.4454 9.57975 17.5672 9.31545 17.6376C8.78166 17.78 8.2132 17.7044 7.73513 17.4276C7.25706 17.1507 6.90853 16.6954 6.76622 16.1616C6.62392 15.6278 6.69949 15.0593 6.97631 14.5812C9.26805 10.6101 12.8064 7.50637 17.0424 5.75173C21.2784 3.99708 25.975 3.68962 30.4036 4.87705C34.8322 6.06448 38.745 8.68041 41.5349 12.3189C44.3248 15.9574 45.8357 20.415 45.8333 25C45.8335 25.2736 45.7797 25.5446 45.6751 25.7974C45.5704 26.0503 45.417 26.28 45.2235 26.4735C45.03 26.667 44.8003 26.8204 44.5474 26.9251C44.2946 27.0297 44.0236 27.0835 43.75 27.0833ZM41.4062 45.8333C41.1326 45.8335 40.8616 45.7797 40.6088 45.6751C40.356 45.5704 40.1262 45.417 39.9328 45.2235C39.7393 45.03 39.5858 44.8003 39.4812 44.5474C39.3765 44.2946 39.3228 44.0236 39.3229 43.75V36.4583H32.0312C31.4787 36.4583 30.9488 36.2388 30.5581 35.8481C30.1674 35.4574 29.9479 34.9275 29.9479 34.375C29.9479 33.8225 30.1674 33.2926 30.5581 32.9019C30.9488 32.5112 31.4787 32.2917 32.0312 32.2917H41.4062C41.6799 32.2915 41.9509 32.3453 42.2037 32.4499C42.4565 32.5546 42.6862 32.708 42.8797 32.9015C43.0732 33.095 43.2267 33.3247 43.3313 33.5775C43.436 33.8304 43.4897 34.1014 43.4896 34.375V43.75C43.4897 44.0236 43.436 44.2946 43.3313 44.5474C43.2267 44.8003 43.0732 45.03 42.8797 45.2235C42.6862 45.417 42.4565 45.5704 42.2037 45.6751C41.9509 45.7797 41.6799 45.8335 41.4062 45.8333Z" fill="#E94DD5"/>
<path id="Vector_3" d="M25 45.8333C19.4766 45.8268 14.1813 43.6298 10.2757 39.7242C6.37013 35.8186 4.17312 30.5233 4.16663 25C4.16663 24.4475 4.38612 23.9176 4.77682 23.5269C5.16752 23.1362 5.69742 22.9167 6.24996 22.9167C6.80249 22.9167 7.3324 23.1362 7.7231 23.5269C8.1138 23.9176 8.33329 24.4475 8.33329 25C8.33099 28.6682 9.53969 32.2346 11.7718 35.1456C14.0038 38.0565 17.1344 40.1493 20.6776 41.0989C24.2208 42.0485 27.9784 41.8019 31.3671 40.3974C34.7557 38.9928 37.586 36.5089 39.4185 33.3312C39.6953 32.8532 40.1507 32.5046 40.6845 32.3623C41.2183 32.22 41.7867 32.2956 42.2648 32.5724C42.7429 32.8492 43.0914 33.3046 43.2337 33.8384C43.376 34.3722 43.3005 34.9407 43.0236 35.4187C41.1913 38.5781 38.563 41.2022 35.4006 43.0295C32.2382 44.8568 28.6523 45.8235 25 45.8333Z" fill="#E94DD5"/>
</g>
</svg>
