<svg width="27" height="33" viewBox="0 0 27 33" fill="none" xmlns="http://www.w3.org/2000/svg">
<path id="Exclude" fill-rule="evenodd" clip-rule="evenodd" d="M14.8737 0.659177C13.9759 0.40267 13.0242 0.40267 12.1265 0.659177L3.79314 3.04013C1.64663 3.65342 0.166748 5.61535 0.166748 7.84775V16.8052C0.166748 21.6494 2.50623 26.1955 6.44817 29.0112L10.5939 31.9724C12.3324 33.2142 14.6678 33.2142 16.4063 31.9724L20.552 29.0112C24.4939 26.1955 26.8334 21.6494 26.8334 16.8052V7.84775C26.8334 5.61535 25.3535 3.65342 23.207 3.04013L14.8737 0.659177ZM19.64 10.7841C20.3115 11.4137 20.3455 12.4684 19.716 13.1399L13.466 19.8066C12.8689 20.4434 11.8816 20.5117 11.2025 19.963L7.45255 16.9327C6.73661 16.3541 6.62522 15.3048 7.20376 14.5888C7.78229 13.8729 8.83167 13.7615 9.54761 14.34L12.0932 16.3971L17.2842 10.8601C17.9137 10.1886 18.9685 10.1546 19.64 10.7841Z" fill="#FF9AF8"/>
</svg>
