<svg width="36" height="34" viewBox="0 0 36 34" fill="none" xmlns="http://www.w3.org/2000/svg">
<path id="Exclude" fill-rule="evenodd" clip-rule="evenodd" d="M18.0001 0.333374C13.2831 0.333374 9.00994 2.20068 5.92034 5.21493C2.83074 8.22918 0.916748 12.3981 0.916748 17C0.916748 21.602 2.83074 25.7709 5.92034 28.7852C9.00994 31.7994 13.2831 33.6667 18.0001 33.6667C22.717 33.6667 26.9902 31.7994 30.0798 28.7852C33.1694 25.7709 35.0834 21.602 35.0834 17C35.0834 12.3981 33.1694 8.22918 30.0798 5.21493C26.9902 2.20068 22.717 0.333374 18.0001 0.333374ZM18.0001 8.66671C18.9436 8.66671 19.7084 9.4129 19.7084 10.3334V16.3097L22.6247 19.1549C23.2919 19.8057 23.2919 20.861 22.6247 21.5119C21.9576 22.1628 20.8759 22.1628 20.2088 21.5119L16.7921 18.1786C16.4717 17.866 16.2917 17.4421 16.2917 17V10.3334C16.2917 9.4129 17.0566 8.66671 18.0001 8.66671Z" fill="#FF9AF8"/>
</svg>
