<svg width="41" height="40" viewBox="0 0 41 40" fill="none" xmlns="http://www.w3.org/2000/svg">
<g id="Experiencia">
<path id="Exclude" fill-rule="evenodd" clip-rule="evenodd" d="M20.5 3.33337C11.2953 3.33337 3.83337 10.7953 3.83337 20C3.83337 29.2048 11.2953 36.6667 20.5 36.6667C29.7048 36.6667 37.1667 29.2048 37.1667 20C37.1667 10.7953 29.7048 3.33337 20.5 3.33337ZM22.7416 12.4432C21.8246 10.5851 19.1749 10.5851 18.2579 12.4432L16.9439 15.1058L14.0056 15.5327C11.955 15.8307 11.1363 18.3506 12.62 19.797L14.7462 21.8695L14.2443 24.7959C13.894 26.8381 16.0376 28.3955 17.8717 27.4313L20.4997 26.0496L23.1278 27.4313C24.9619 28.3955 27.1055 26.8381 26.7552 24.7959L26.2533 21.8695L28.3794 19.797C29.8632 18.3506 29.0445 15.8307 26.9939 15.5327L24.0556 15.1058L22.7416 12.4432Z" fill="#FF9AF8"/>
</g>
</svg>
