<svg width="50" height="50" viewBox="0 0 50 50" fill="none" xmlns="http://www.w3.org/2000/svg">
<g id="Google">
<path id="Vector" d="M25.4622 12.4527C28.4234 12.4029 31.2849 13.5223 33.4262 15.5682L39.4016 9.59281C35.6306 6.05114 30.6352 4.10658 25.4622 4.16667C17.5852 4.16364 10.3806 8.60515 6.84473 15.644L13.805 21.0417C15.4462 15.9747 20.1364 12.5189 25.4622 12.4527Z" fill="#FF9AF8"/>
<path id="Vector_2" d="M6.84471 15.6439C3.89014 21.5314 3.89014 28.4685 6.84471 34.356L13.8049 28.9583C12.9338 26.3913 12.9338 23.6087 13.8049 21.0417L6.84471 15.6439Z" fill="#E94DD5"/>
<path id="Vector_3" d="M32.5171 35.5588C26.6754 39.3084 18.9002 37.6124 15.1506 31.7707C14.587 30.8928 14.135 29.948 13.8049 28.9583L6.84473 34.356C10.3805 41.3949 17.5852 45.8364 25.4622 45.8333C30.5336 45.9709 35.4659 44.1653 39.25 40.7861L32.5171 35.5588Z" fill="#FF55F3"/>
<path id="Vector_4" d="M45.0833 21.2121H25.4622V29.2708H36.6742C36.2055 31.8466 34.7035 34.1185 32.5171 35.5587C32.5104 35.563 32.5036 35.5662 32.497 35.5704C32.5036 35.5662 32.5104 35.563 32.5171 35.5588L39.2499 40.7861L39.25 40.786C43.3965 36.7924 45.6541 31.2272 45.4621 25.4735C45.4633 24.0445 45.3365 22.6185 45.0833 21.2121Z" fill="#FF9AF8"/>
</g>
</svg>
