<svg width="50" height="50" viewBox="0 0 50 50" fill="none" xmlns="http://www.w3.org/2000/svg">
<g id="Soporte">
<path id="Vector" d="M39.5833 6.25H10.4166C6.96485 6.25 4.16663 9.04822 4.16663 12.5V31.25C4.16663 34.7018 6.96485 37.5 10.4166 37.5H39.5833C43.0351 37.5 45.8333 34.7018 45.8333 31.25V12.5C45.8333 9.04822 43.0351 6.25 39.5833 6.25Z" fill="#FF9AF8"/>
<path id="Vector_2" d="M33.3333 43.75H16.6666C16.2895 43.75 15.9195 43.6477 15.596 43.454C15.2725 43.2602 15.0076 42.9822 14.8297 42.6498C14.6518 42.3173 14.5675 41.9427 14.5857 41.5661C14.6039 41.1894 14.7241 40.8248 14.9333 40.5111L23.2666 28.0111C23.4679 27.7412 23.7294 27.522 24.0303 27.371C24.3313 27.22 24.6633 27.1413 25 27.1413C25.3367 27.1413 25.6687 27.22 25.9697 27.371C26.2706 27.522 26.5321 27.7412 26.7334 28.0111L35.0667 40.5111C35.276 40.8248 35.3961 41.1895 35.4143 41.5661C35.4326 41.9428 35.3482 42.3173 35.1703 42.6498C34.9923 42.9823 34.7275 43.2602 34.4039 43.454C34.0804 43.6478 33.7104 43.7501 33.3333 43.75Z" fill="#E94DD5"/>
</g>
</svg>
