<svg width="42" height="40" viewBox="0 0 42 40" fill="none" xmlns="http://www.w3.org/2000/svg">
<g id="Soporte">
<path id="Exclude" fill-rule="evenodd" clip-rule="evenodd" d="M19.7541 3.33337C17.3567 3.33337 15.4132 5.22948 15.4132 7.56844C15.4132 7.90741 15.1736 8.35965 14.601 8.66307C14.4247 8.75644 14.251 8.85354 14.0797 8.95425C13.5086 9.29015 12.9724 9.26859 12.6577 9.09287C10.567 7.92584 7.90287 8.62225 6.69037 10.6527L5.48699 12.668C4.27217 14.7024 4.98909 17.3128 7.08377 18.4821C7.38746 18.6516 7.67301 19.0828 7.6591 19.7244C7.65711 19.8161 7.65611 19.908 7.65611 20C7.65611 20.0921 7.65711 20.184 7.6591 20.2757C7.67301 20.9173 7.38748 21.3485 7.0838 21.518C4.98915 22.6873 4.27223 25.2977 5.48704 27.332L6.69046 29.3473C7.90294 31.3778 10.5671 32.0742 12.6577 30.9072C12.9725 30.7315 13.5086 30.7099 14.0797 31.0458C14.251 31.1465 14.4248 31.2436 14.601 31.337C15.1736 31.6404 15.4132 32.0927 15.4132 32.4316C15.4132 34.7706 17.3567 36.6667 19.7541 36.6667H22.246C24.6435 36.6667 26.587 34.7706 26.587 32.4316C26.587 32.0927 26.8266 31.6404 27.3992 31.337C27.5754 31.2436 27.7492 31.1466 27.9204 31.0458C28.4916 30.71 29.0277 30.7315 29.3425 30.9072C31.4331 32.0743 34.0972 31.3778 35.3097 29.3474L36.5131 27.3321C37.728 25.2977 37.011 22.6873 34.9164 21.518C34.6127 21.3485 34.3272 20.9173 34.3411 20.2757C34.3431 20.184 34.3441 20.0921 34.3441 20C34.3441 19.908 34.3431 19.8161 34.3411 19.7244C34.3272 19.0828 34.6127 18.6516 34.9164 18.4821C37.0111 17.3128 37.728 14.7024 36.5132 12.668L35.3098 10.6527C34.0973 8.62224 31.4332 7.92582 29.3425 9.09286C29.0277 9.26858 28.4916 9.29014 27.9205 8.95424C27.7492 8.85353 27.5754 8.75644 27.3992 8.66307C26.8266 8.35965 26.587 7.90741 26.587 7.56844C26.587 5.22948 24.6435 3.33337 22.246 3.33337H19.7541ZM21 15C18.1695 15 15.875 17.2386 15.875 20C15.875 22.7615 18.1695 25 21 25C23.8304 25 26.125 22.7615 26.125 20C26.125 17.2386 23.8304 15 21 15Z" fill="#FF9AF8"/>
</g>
</svg>
