<svg width="35" height="35" viewBox="0 0 35 35" fill="none" xmlns="http://www.w3.org/2000/svg">
<g id="Social Icons">
<path id="Vector" d="M25.801 16.2218C25.6502 16.1496 25.4971 16.08 25.342 16.0134C25.0718 11.0356 22.3518 8.18581 17.7847 8.15664C17.764 8.15651 17.7434 8.15651 17.7227 8.15651C14.991 8.15651 12.719 9.32256 11.3206 11.4444L13.8324 13.1674C14.8771 11.5825 16.5165 11.2446 17.7239 11.2446C17.7379 11.2446 17.7519 11.2446 17.7657 11.2448C19.2695 11.2543 20.4042 11.6916 21.1387 12.5442C21.6732 13.165 22.0306 14.0228 22.2076 15.1054C20.8744 14.8788 19.4324 14.8091 17.891 14.8975C13.5487 15.1476 10.7572 17.6801 10.9447 21.1991C11.0398 22.9841 11.9291 24.5197 13.4485 25.5228C14.7332 26.3709 16.3878 26.7856 18.1074 26.6917C20.3783 26.5672 22.1599 25.7008 23.4027 24.1165C24.3467 22.9133 24.9437 21.3542 25.2073 19.3896C26.2895 20.0428 27.0916 20.9023 27.5346 21.9355C28.2878 23.6919 28.3317 26.5781 25.9767 28.9311C23.9133 30.9925 21.4331 31.8843 17.6847 31.9118C13.5268 31.881 10.3822 30.5475 8.33763 27.9484C6.4231 25.5146 5.43365 21.9993 5.39674 17.5C5.43365 13.0006 6.4231 9.48529 8.33763 7.05153C10.3822 4.45246 13.5267 3.11901 17.6847 3.08811C21.8728 3.11925 25.0722 4.45911 27.195 7.07073C28.2358 8.35144 29.0206 9.96202 29.538 11.8399L32.4814 11.0546C31.8543 8.74311 30.8676 6.7513 29.5248 5.09943C26.8034 1.75122 22.8232 0.0355739 17.6949 0H17.6744C12.5565 0.0354503 8.62092 1.75762 5.97699 5.11862C3.62426 8.1095 2.41066 12.2711 2.36988 17.4877L2.36975 17.5L2.36988 17.5123C2.41066 22.7289 3.62426 26.8906 5.97699 29.8814C8.62092 33.2423 12.5565 34.9646 17.6744 35H17.6949C22.245 34.9685 25.4523 33.7772 28.0944 31.1374C31.5512 27.6839 31.4471 23.355 30.3078 20.6976C29.4904 18.7919 27.932 17.2441 25.801 16.2218ZM17.9448 23.608C16.0417 23.7152 14.0646 22.861 13.9671 21.0314C13.8948 19.6747 14.9325 18.161 18.0616 17.9807C18.42 17.96 18.7716 17.9499 19.1171 17.9499C20.2537 17.9499 21.317 18.0603 22.2837 18.2716C21.9231 22.7746 19.8081 23.5058 17.9448 23.608Z" fill="#E94DD5"/>
</g>
</svg>
